<svg xmlns="http://www.w3.org/2000/svg" viewBox="0 0 218 36.02"><defs><style>.cls-1{fill:#004a95;}.cls-1,.cls-2{fill-rule:evenodd;}.cls-2{fill:#5bc758;}</style></defs><title>Obszar roboczy 1</title><path d="M21.26 28.17H16V16.3l-5.27 7-5.36-7.1v12H0V7.85H5.7l5 6.5 5-6.53h5.6a19.53 19.53 0 0 0 0 20.33zm44.9-14a4.2 4.2 0 0 0-3.52-1.77H59.8v11h2.1a5.18 5.18 0 0 0 4.1-1.5 5.78 5.78 0 0 0 1.44-3.9 6 6 0 0 0-1.3-3.82zm-3.52 14h-8.17a19.53 19.53 0 0 0 0-20.3h8.17a9.75 9.75 0 0 1 7.15 3 9.84 9.84 0 0 1 3 7.18 9.9 9.9 0 0 1-3 7.24 9.73 9.73 0 0 1-7.16 2.9zm20.27-.1a8.64 8.64 0 0 1-8.6-8.67V7.88h5.37v11.78a3.26 3.26 0 0 0 6.52 0V7.88h5.35V19.4A8.27 8.27 0 0 1 89 25.53a8.37 8.37 0 0 1-6.1 2.56zM93.18 7.84h5.33v15.5h6.9v4.82H93.16zm19.16 8h8.73v4.05h-8.7v3.56h8.83v4.7h-14.25V7.85h14.24v4.57h-8.9zm19 .45a11.53 11.53 0 0 1 4.7 3.13 5.3 5.3 0 0 1 .86 4.33 4.9 4.9 0 0 1-2.64 3.5 12.42 12.42 0 0 1-4.5.88h-7.1v-4.72h6.1c1.87 0 2.42-.2 2.65-.63a1 1 0 0 0 .13-1c-.3-.88-1.62-1.33-3.26-2a12.4 12.4 0 0 1-4.93-3.27 5.2 5.2 0 0 1-.76-4.23 5.33 5.33 0 0 1 2.84-3.48 10.2 10.2 0 0 1 4.48-.93h.74a41.16 41.16 0 0 1 5.32.32l.06 4.46a25.25 25.25 0 0 0-4.9-.43c-2 0-2.6.08-3.1.9a1.06 1.06 0 0 0-.12 1c.34.85 1.7 1.37 3.45 2.12z" class="cls-1"/><path d="M217 27.05a1.9 1.9 0 0 1-1.38 1.17l-.13-.53s4-11.28-1.96-11.58c-3.5-.12-5.45 3.6-6.15 7-.08 1.5-.1 3.24-.06 5.22-.46-.12-1.12-.26-1.12-.26s-.92-9.4 1.06-13.9a2.1 2.1 0 0 1 1.5.1 19.34 19.34 0 0 0-1.12 5.36c.85-2.13 2.73-5.43 6.25-5.36 5.2.06 4.45 8.2 3.1 12.77zm-24.12-4.3a9.13 9.13 0 0 1 .06-2.47c-.4-.2-.64-.34-.74-.4-.3-.38-.16-.58 0-1a5.1 5.1 0 0 0 1.05.58c.74-2.84 2.76-5 5.13-5.47 3.22-.64 6.14 1 6.5 2.83s-.1 5.17-4.6 5.17a16 16 0 0 1-6.1-1.17 4.8 4.8 0 0 0 0 2c.42 3.4 6.47 6 10.7 2.35.34 0 .7 0 .64.27-5.24 4.9-12.03 2.38-12.65-2.7zm1.62-2.9a22.75 22.75 0 0 0 5.62.9c2.95.05 4.06-1.8 3.75-3.4-.37-1.9-2.8-2.62-4.9-2.23-1.84.33-3.5 2-4.54 4.76zm-2.3 0a2.36 2.36 0 0 0 .23.25c-.26-.22-.35-.3-.24-.23zm-2 4.58c.28 1.57 1.72 2.38 3.78 1.68-2.77 2.7-4.1 1.77-4.7-.48a8.15 8.15 0 0 1-6.28 2.8c-3.2-.07-4.25-3.1-4.24-5.4 0-2.7 1.76-8 6.37-8.45.53 0 2.8-.14 3.94 1.26a1.78 1.78 0 0 1 .25.43c.1-.86.23-1.56.32-2 .83-4 .9-5.63 1.45-6.1a3.63 3.63 0 0 1 1.83-.6c.26 0-1.6 5.77-2.2 8.8a25.1 25.1 0 0 0-.54 8.08zm-5.07-8.74c-2.7.36-4.9 3.45-4.73 7.73.16 3.93 3.54 4 5.75 3.2A5.35 5.35 0 0 0 189 24.2a29.4 29.4 0 0 1 0-5.3c0-1.9-1.12-3.58-3.88-3.2zm-6.26 1.8c-.4-.27-.6-.87-1.24-1.27s-1.7-.93-3.54.23c-2.56 1.6-3.38 6.4-3.85 8.05a11.62 11.62 0 0 0-.37 3.35s0 .1-.25.2a1.4 1.4 0 0 1-.8-1.8c.24-.83 0-2.7.08-4.64a40.47 40.47 0 0 0-.4-7.85c-.25-.54 1.48-1.4 1.67-.65a53.22 53.22 0 0 1-.22 8.8c.67-3.47 2.72-7.54 6-7.8s3.92 3.2 3.85 3.46-.55.2-.94-.06zm-13.74 8.56c-.06-.22-.1-.44-.14-.65a6.22 6.22 0 0 1-4.22 2.7c-2.18.22-5.1-.23-5.35-4-.3-4.2 3.27-5.57 5.88-5.2a5 5 0 0 1 3.8 2.32c.1-.66.2-1.36.27-2.14.2-2.37-2.08-3.93-4.63-4s-3.5 1.26-3.78 1.78a1.06 1.06 0 0 1-.87.53 4.36 4.36 0 0 1 4.54-3.65c3.6 0 6.14 2 6 5.34-.12 2.34-.8 3.5-.46 6.2.18 1.5 1.4 2.46 2.38 2.17a2.2 2.2 0 0 1-3.44-1.4zm-4.66-5.95c-2.9.2-3.85 1.85-3.75 4.08.08 1.73 2 2.94 4 2.77a5.9 5.9 0 0 0 4.17-2.87 12.3 12.3 0 0 1 .08-1.64c-.25-.44-1.33-2.52-4.52-2.3zm-12-1.37a36.8 36.8 0 0 1 5.2.5 2.9 2.9 0 0 1 .4 1.48c-.06 1.1-.12 5.65-.12 5.65s-1 1.07-1.22.43a19.06 19.06 0 0 1-.25-3.1s-1.12 4.74-7.7 4.6c-6.86-.13-7.47-8.53-5.93-13.06 1.3-3.8 4.1-7.85 10.14-7.47 1.84.23 2.93.55 4 1.73a4.1 4.1 0 0 1 1 2.78 4.77 4.77 0 0 1-2.08.68c.37-1 .43-3.48-3.37-3.84a6.8 6.8 0 0 0-4.74 1.48c-3.3 2.8-4.25 6-4.17 9.88s2.42 6.23 5.07 6.25c7.18.08 7.57-6 7.57-6s-5.13-1-4.87-1.25a2.4 2.4 0 0 1 1.07-.7zM37.87 36a18 18 0 1 1 18-18 18 18 0 0 1-18 18zm0-30.7A12.7 12.7 0 1 0 50.5 18 12.7 12.7 0 0 0 37.86 5.3zm5.4 21.26a1.05 1.05 0 0 1 .9.52 11 11 0 0 1-1.84 1 1.06 1.06 0 0 1 .93-1.56zm0-2a3.1 3.1 0 0 0-2.9 4.26 11 11 0 0 1-2.2.3 5.3 5.3 0 0 1 9-5.06 11.16 11.16 0 0 1-1.4 1.74 3.1 3.1 0 0 0-2.5-1.25zm0-2.68a5.78 5.78 0 0 0-5.6 7.23 11 11 0 0 1-4.94-1.26v-1.08a.13.13 0 0 1 .08-.13l1.54-.4a9 9 0 0 1 .5-1.86l-1.13-1.1a.13.13 0 0 1 0-.15l.87-1.5a.13.13 0 0 1 .13-.07l1.52.43a9.1 9.1 0 0 1 1.38-1.38l-.43-1.52a.13.13 0 0 1 .07-.13l1.5-.86a.13.13 0 0 1 .15 0l1.1 1.1a9 9 0 0 1 1.88-.5l.4-1.52a.13.13 0 0 1 .12-.08h1.72a.13.13 0 0 1 .13.08l.4 1.52a9 9 0 0 1 1.88.5l1.1-1.12a.13.13 0 0 1 .14 0l1.12.65a11 11 0 0 1-1.5 4.88 5.75 5.75 0 0 0-4.14-1.73zm3.58-6.8a.1.1 0 0 1-.12 0l-.9-.95a4.9 4.9 0 0 1-1.6.2l-.65 1.1a.1.1 0 0 1-.12 0l-1.33-.37A.1.1 0 0 1 42 15v-1.3a4.94 4.94 0 0 1-1.28-1l-1.17.3a.1.1 0 0 1-.1-.06l-.68-1.2a.1.1 0 0 1 0-.13l.94-.88a4.94 4.94 0 0 1-.17-1.64l-1.1-.65a.1.1 0 0 1 0-.12l.34-1.3a10.94 10.94 0 0 1 3 .7 3.16 3.16 0 0 0 5 3.83 11.1 11.1 0 0 1 1.07 1.8l.25 1a.1.1 0 0 1-.07.12zm-4.92-4.3a2.9 2.9 0 0 1 .1-3 11.07 11.07 0 0 1 1.13.52 1.7 1.7 0 1 0 2.7 2.08 11.17 11.17 0 0 1 .77.9 2.9 2.9 0 0 1-4.7-.5zm2-1.14a.58.58 0 0 1 .16-.74q.45.32.87.68a.58.58 0 0 1-1 .07zm-12.3 5.72a.1.1 0 0 1-.1.06l-1-.28a3.4 3.4 0 0 1-1.28.76l-.26 1a.1.1 0 0 1-.1.06h-1.34a.1.1 0 0 1-.1-.06l-.28-1-.18-.05a11 11 0 0 1 .3-1.2 2.16 2.16 0 0 0 2.07-3.75 11.25 11.25 0 0 1 .84-.9l.2.16 1.06-.3a.1.1 0 0 1 .1.04l.67 1.1a.1.1 0 0 1 0 .1l-.78.8a3.38 3.38 0 0 1 0 1.46l.8.76a.1.1 0 0 1 0 .1zm-2.46-1a2 2 0 0 1-1.8.1c.1-.25.2-.5.3-.74a1.16 1.16 0 0 0 1.1-2c.17-.23.33-.45.5-.66a2 2 0 0 1-.1 3.34zM28 13c.12-.23.24-.47.38-.7a.4.4 0 0 1 .14.15.4.4 0 0 1-.52.55z" class="cls-2"/></svg>